<?xml version="1.0" standalone="no"?>
<!DOCTYPE svg PUBLIC "-//W3C//DTD SVG 20010904//EN"
 "http://www.w3.org/TR/2001/REC-SVG-20010904/DTD/svg10.dtd">
<svg version="1.0" xmlns="http://www.w3.org/2000/svg"
 width="225.000000pt" height="225.000000pt" viewBox="0 0 225.000000 225.000000"
 preserveAspectRatio="xMidYMid meet">
<metadata>
Created by potrace 1.16, written by Peter Selinger 2001-2019
</metadata>
<g transform="translate(0.000000,225.000000) scale(0.100000,-0.100000)"
fill="#000000" stroke="none">
<path d="M292 2239 c-82 -16 -162 -85 -181 -156 -7 -25 -11 -310 -11 -838 0
-758 1 -802 19 -840 10 -22 34 -54 52 -72 69 -66 37 -63 804 -63 382 0 695 1
695 3 0 1 -13 42 -29 92 -16 49 -28 91 -26 93 2 2 122 -98 267 -222 l263 -225
3 1012 c2 676 -1 1024 -7 1048 -17 57 -63 111 -122 144 l-54 30 -815 2 c-448
0 -834 -3 -858 -8z m653 -528 c3 -5 -20 -17 -52 -26 -58 -17 -172 -71 -208
-99 -11 -8 22 -1 75 18 123 44 219 60 355 60 136 0 232 -17 354 -60 52 -18 96
-32 98 -30 6 6 -170 93 -214 107 -62 18 -54 33 15 27 68 -7 198 -55 247 -93
83 -62 174 -340 200 -606 l7 -66 -49 -43 c-62 -56 -150 -96 -240 -112 -79 -13
-89 -9 -134 54 l-19 26 72 35 c40 20 84 48 98 63 14 15 21 25 15 22 -5 -2 -45
-20 -87 -41 -151 -71 -293 -90 -462 -63 -94 16 -245 61 -311 94 l-30 14 30
-32 c17 -18 60 -47 97 -65 l66 -32 -36 -46 c-41 -51 -49 -53 -139 -32 -87 20
-145 50 -205 103 l-51 46 7 90 c13 171 65 365 139 516 31 63 34 66 117 108 47
23 114 49 150 57 81 17 87 17 95 6z"/>
<path d="M844 1281 c-39 -24 -58 -70 -51 -122 14 -108 153 -141 214 -50 74
110 -50 241 -163 172z"/>
<path d="M1279 1283 c-120 -74 -36 -264 98 -220 70 23 103 109 68 177 -29 56
-112 77 -166 43z"/>
</g>
</svg>
